# xmcd
#
# Track frame offsets: 
#        150
#        20899
#        37798
#        60123
#        76498
#        94647
#        108673
#        124574
#        140249
#        164624
#
# Disc length: 2462 seconds
#
# Revision: 3
# Processed by: cddbd v1.5.2PL0 Copyright (c) Steve Scherf et al.
# Submitted via: ExactAudioCopyFreeDBPlugin 1.0
#
DISCID=7f099c0a
DTITLE=Bee Gees - 1975 - Main Course
DYEAR=1975
DGENRE=Pop
TTITLE0=Nights On Broadway
TTITLE1=Jive Talkin'
TTITLE2=Wind Of Change
TTITLE3=Songbird
TTITLE4=Fanny [Be Tender With My Love]
TTITLE5=All This Making Love
TTITLE6=Country Lanes
TTITLE7=Come On Over
TTITLE8=Edge Of The Universe
TTITLE9=Baby As You Turn Away
EXTD=YEAR: 1975
EXTT0=
EXTT1=
EXTT2=
EXTT3=
EXTT4=
EXTT5=
EXTT6=
EXTT7=
EXTT8=
EXTT9=
PLAYORDER=
